<?xml version="1.0" standalone="no"?>
<!DOCTYPE svg PUBLIC "-//W3C//DTD SVG 20010904//EN"
 "http://www.w3.org/TR/2001/REC-SVG-20010904/DTD/svg10.dtd">
<svg version="1.0" xmlns="http://www.w3.org/2000/svg"
 width="300.000000pt" height="300.000000pt" viewBox="0 0 300.000000 300.000000"
 preserveAspectRatio="xMidYMid meet">
<metadata>
Created by potrace 1.14, written by Peter Selinger 2001-2017
</metadata>
<g transform="translate(0.000000,300.000000) scale(0.100000,-0.100000)"
fill="#000000" stroke="none">
<path d="M585 2966 c-69 -28 -80 -36 -80 -57 0 -17 6 -25 22 -27 29 -4 41 -41
18 -58 -9 -7 -15 -22 -13 -36 2 -18 9 -23 30 -23 18 1 30 -6 37 -22 6 -13 7
-23 2 -23 -4 0 -12 -8 -17 -19 -5 -10 -42 -46 -81 -80 -77 -66 -198 -205 -248
-283 -26 -42 -32 -46 -58 -41 -29 6 -29 5 -22 -28 4 -19 8 -36 8 -39 1 -3 -9
-24 -21 -48 -69 -131 -132 -336 -153 -497 -16 -124 -6 -373 21 -497 37 -174
109 -350 204 -498 41 -63 42 -66 24 -84 -26 -28 -23 -82 7 -111 20 -21 34 -25
80 -25 l57 0 81 -76 c133 -123 318 -238 487 -301 36 -14 72 -31 80 -38 8 -7
39 -23 69 -35 52 -20 67 -21 330 -17 254 4 284 6 381 30 295 71 522 198 730
407 213 212 349 461 410 748 27 125 37 373 21 497 -91 687 -625 1220 -1308
1306 -141 17 -371 6 -503 -24 -135 -32 -233 -67 -342 -121 -57 -28 -88 -39
-88 -30 0 7 7 17 16 22 9 5 14 18 12 33 -2 19 -9 24 -31 24 -37 1 -54 29 -32
51 9 9 15 24 13 33 -5 27 -57 22 -143 -13z m1644 -230 c40 -36 15 -96 -41 -96
-15 0 -28 -3 -28 -7 0 -5 -9 -57 -19 -118 -11 -60 -40 -229 -66 -375 -25 -146
-48 -275 -50 -287 -5 -19 -12 -23 -44 -23 -50 0 -97 -37 -111 -88 -5 -20 -10
-126 -10 -235 l0 -197 -24 -10 c-33 -12 -46 -39 -46 -92 0 -32 -5 -46 -20 -56
-19 -11 -20 -23 -20 -197 l0 -185 -177 0 -178 0 -72 36 -72 35 34 51 c19 28
35 58 35 68 0 14 -24 151 -64 370 -3 14 -12 70 -21 125 -9 54 -19 102 -23 105
-114 86 -208 120 -330 120 -148 0 -261 -46 -362 -150 -234 -238 -167 -640 132
-790 44 -22 85 -40 92 -40 7 0 11 -26 12 -73 0 -39 3 -91 7 -114 l7 -43 -149
0 c-82 0 -157 3 -166 6 -19 8 -45 55 -45 83 0 35 41 72 82 74 21 1 38 4 38 7
0 3 -24 24 -54 47 -104 82 -193 227 -222 362 -62 292 88 597 348 712 37 16
103 38 146 49 69 17 92 19 178 10 91 -8 181 -31 233 -59 17 -9 21 -9 21 3 0 8
-34 206 -75 441 -41 234 -75 428 -75 430 0 3 -13 5 -29 5 -51 0 -79 61 -43 93
22 20 146 24 793 23 435 -1 458 -2 478 -20z m232 -1121 l23 -8 -27 -13 c-15
-8 -31 -23 -37 -34 -13 -25 -27 -26 -35 -2 -3 11 -18 25 -33 31 l-27 13 26 13
c14 8 31 26 38 41 l12 27 19 -30 c10 -17 29 -34 41 -38z m-1561 -85 c0 -4 11
-13 25 -20 31 -17 32 -27 1 -41 -13 -6 -29 -22 -35 -35 -13 -29 -27 -31 -36
-4 -3 11 -19 27 -35 36 l-28 17 41 43 c37 38 43 41 55 26 6 -9 12 -19 12 -22z
m-226 -124 c10 -18 35 -43 57 -55 21 -12 39 -26 39 -32 0 -5 -18 -20 -40 -34
-22 -14 -48 -41 -57 -60 -9 -19 -22 -35 -28 -35 -6 0 -21 18 -33 39 -13 22
-38 49 -57 61 -19 12 -35 26 -35 31 0 5 17 17 38 28 23 12 44 33 55 55 21 45
37 46 61 2z m1994 -2 l22 -15 0 -351 c0 -313 -2 -353 -17 -370 -15 -16 -35
-18 -228 -18 l-213 0 -7 246 c-7 225 -9 246 -26 257 -14 9 -19 24 -19 57 0 51
-22 90 -51 90 -16 0 -19 7 -19 55 l0 55 248 3 c136 1 256 3 267 5 11 1 31 -5
43 -14z"/>
<path d="M1569 2438 c-7 -13 -45 -57 -86 -100 -63 -66 -73 -82 -73 -112 0 -25
9 -45 28 -67 l29 -32 122 2 c138 2 163 11 181 65 15 46 -2 85 -54 129 -25 20
-59 59 -77 87 -36 55 -52 62 -70 28z"/>
<path d="M1344 1997 c-20 -11 -17 -36 5 -45 11 -4 128 -6 259 -4 243 3 264 6
243 40 -8 13 -485 21 -507 9z"/>
<path d="M1460 1875 c-7 -8 -10 -22 -6 -30 9 -23 271 -22 280 1 14 36 -11 44
-139 44 -96 0 -125 -3 -135 -15z"/>
<path d="M1514 1485 c-11 -28 10 -36 87 -33 66 3 74 5 74 23 0 18 -8 20 -78
23 -64 2 -78 0 -83 -13z"/>
<path d="M1556 1337 c-26 -19 -24 -67 4 -89 27 -22 39 -22 68 -2 26 18 30 65
6 88 -19 19 -54 21 -78 3z"/>
</g>
</svg>
